<svg width="1158" height="480" xmlns="http://www.w3.org/2000/svg" xmlns:xlink="http://www.w3.org/1999/xlink" version="1.1" baseProfile="full" viewBox="0 0 1158 480">
<rect width="1158" height="480" x="0" y="0" fill="none"></rect>
<path d="M60 80Q117.1788 68.5642 174.3575 75.8108" transform="matrix(1.116,0,0,1.116,48.8313,27.9325)" fill="none" stroke="#94a3b8" stroke-width="1.6126943005181347" stroke-opacity="0.8" class="zr0-cls-0"></path>
<path d="M0 0L4.6667 7L0 5.25L-4.6667 7L0 0Z" transform="matrix(-0.126,0.992,-0.992,-0.126,243.4396,112.5484)" fill="#94a3b8" fill-opacity="0.8" class="zr0-cls-1"></path>
<path d="M200 80Q256.9564 68.6087 313.9128 75.7548" transform="matrix(1.116,0,0,1.116,48.8313,27.9325)" fill="none" stroke="#94a3b8" stroke-width="1.6126943005181347" stroke-opacity="0.8" class="zr0-cls-0"></path>
<path d="M0 0L4.6667 7L0 5.25L-4.6667 7L0 0Z" transform="matrix(-0.124,0.992,-0.992,-0.124,399.2034,112.4858)" fill="#94a3b8" fill-opacity="0.8" class="zr0-cls-1"></path>
<path d="M340 80Q396.9564 68.6087 453.9128 75.7548" transform="matrix(1.116,0,0,1.116,48.8313,27.9325)" fill="none" stroke="#94a3b8" stroke-width="1.6126943005181347" stroke-opacity="0.8" class="zr0-cls-0"></path>
<path d="M0 0L4.6667 7L0 5.25L-4.6667 7L0 0Z" transform="matrix(-0.124,0.992,-0.992,-0.124,555.4636,112.4858)" fill="#94a3b8" fill-opacity="0.8" class="zr0-cls-1"></path>
<path d="M480 80Q536.9564 68.6087 593.9128 75.7548" transform="matrix(1.116,0,0,1.116,48.8313,27.9325)" fill="none" stroke="#94a3b8" stroke-width="1.6126943005181347" stroke-opacity="0.8" class="zr0-cls-0"></path>
<path d="M0 0L4.6667 7L0 5.25L-4.6667 7L0 0Z" transform="matrix(-0.124,0.992,-0.992,-0.124,711.7239,112.4858)" fill="#94a3b8" fill-opacity="0.8" class="zr0-cls-1"></path>
<path d="M620 80Q676.5116 68.6977 733.0233 75.6443" transform="matrix(1.116,0,0,1.116,48.8313,27.9325)" fill="none" stroke="#94a3b8" stroke-width="1.6126943005181347" stroke-opacity="0.8" class="zr0-cls-0"></path>
<path d="M0 0L4.6667 7L0 5.25L-4.6667 7L0 0Z" transform="matrix(-0.122,0.993,-0.993,-0.122,866.9913,112.3625)" fill="#94a3b8" fill-opacity="0.8" class="zr0-cls-1"></path>
<path d="M760 80Q797.4114 146.7454 865.1864 175.8978" transform="matrix(1.116,0,0,1.116,48.8313,27.9325)" fill="none" stroke="#10b981" stroke-width="1.7918825561312606" stroke-opacity="0.8" class="zr0-cls-0"></path>
<path d="M0 0L4.6667 7L0 5.25L-4.6667 7L0 0Z" transform="matrix(-0.395,0.919,-0.919,-0.395,1014.5044,224.2599)" fill="#10b981" fill-opacity="0.8" class="zr0-cls-1"></path>
<path d="M890 185Q838.0494 195.3901 786.0988 189.1718" transform="matrix(1.116,0,0,1.116,48.8313,27.9325)" fill="none" stroke="#94a3b8" stroke-width="1.6126943005181347" stroke-opacity="0.8" class="zr0-cls-0"></path>
<path d="M0 0L4.6667 7L0 5.25L-4.6667 7L0 0Z" transform="matrix(0.119,-0.993,0.993,0.119,926.2312,239.0757)" fill="#94a3b8" fill-opacity="0.8" class="zr0-cls-1"></path>
<path d="M760 185Q702.1543 196.5691 644.3086 189.0176" transform="matrix(1.116,0,0,1.116,48.8313,27.9325)" fill="none" stroke="#94a3b8" stroke-width="1.6126943005181347" stroke-opacity="0.8" class="zr0-cls-0"></path>
<path d="M0 0L4.6667 7L0 5.25L-4.6667 7L0 0Z" transform="matrix(0.129,-0.992,0.992,0.129,767.9729,238.9035)" fill="#94a3b8" fill-opacity="0.8" class="zr0-cls-1"></path>
<path d="M620 185Q563.0436 196.3913 506.0872 189.2452" transform="matrix(1.116,0,0,1.116,48.8313,27.9325)" fill="none" stroke="#94a3b8" stroke-width="1.6126943005181347" stroke-opacity="0.8" class="zr0-cls-0"></path>
<path d="M0 0L4.6667 7L0 5.25L-4.6667 7L0 0Z" transform="matrix(0.124,-0.992,0.992,0.124,613.6978,239.1576)" fill="#94a3b8" fill-opacity="0.8" class="zr0-cls-1"></path>
<path d="M480 185Q423.266 196.3468 366.532 189.3008" transform="matrix(1.116,0,0,1.116,48.8313,27.9325)" fill="none" stroke="#94a3b8" stroke-width="1.6126943005181347" stroke-opacity="0.8" class="zr0-cls-0"></path>
<path d="M0 0L4.6667 7L0 5.25L-4.6667 7L0 0Z" transform="matrix(0.123,-0.992,0.992,0.123,457.934,239.2195)" fill="#94a3b8" fill-opacity="0.8" class="zr0-cls-1"></path>
<path d="M340 185Q283.266 196.3468 226.532 189.3008" transform="matrix(1.116,0,0,1.116,48.8313,27.9325)" fill="none" stroke="#94a3b8" stroke-width="1.6126943005181347" stroke-opacity="0.8" class="zr0-cls-0"></path>
<path d="M0 0L4.6667 7L0 5.25L-4.6667 7L0 0Z" transform="matrix(0.123,-0.992,0.992,0.123,301.6738,239.2195)" fill="#94a3b8" fill-opacity="0.8" class="zr0-cls-1"></path>
<path d="M200 185Q303.8235 287.0099 445.4683 298.5774" transform="matrix(1.116,0,0,1.116,48.8313,27.9325)" fill="none" stroke="#ec4899" stroke-width="1.7918825561312606" stroke-opacity="0.8" class="zr0-cls-0"></path>
<path d="M0 0L4.6667 7L0 5.25L-4.6667 7L0 0Z" transform="matrix(-0.081,0.997,-0.997,-0.081,546.0384,361.188)" fill="#ec4899" fill-opacity="0.8" class="zr0-cls-1"></path>
<path d="M620 185Q587.3976 271.6537 504.005 294.2675" transform="matrix(1.116,0,0,1.116,48.8313,27.9325)" fill="none" stroke="#8b5cf6" stroke-width="1.3439119170984455" stroke-opacity="0.8" stroke-dasharray="5.375647668393782,2.687823834196891" class="zr0-cls-0"></path>
<path d="M0 0L4.6667 7L0 5.25L-4.6667 7L0 0Z" transform="matrix(-0.262,-0.965,0.965,-0.262,611.3737,356.3776)" fill="#8b5cf6" fill-opacity="0.8" class="zr0-cls-1"></path>
<path d="M-0.5 -1L0.5 -1A0.5 0.5 0 0 1 1 -0.5L1 0.5A0.5 0.5 0 0 1 0.5 1L-0.5 1A0.5 0.5 0 0 1 -1 0.5L-1 -0.5A0.5 0.5 0 0 1 -0.5 -1" transform="matrix(32,0,0,26,115.8,117.2241)" fill="#3b82f6" stroke="rgb(255,255,255)" stroke-width="0.06933752452815364" stroke-opacity="0.7" filter="url(#zr0-s0)" class="zr0-cls-2"></path>
<path d="M-0.5 -1L0.5 -1A0.5 0.5 0 0 1 1 -0.5L1 0.5A0.5 0.5 0 0 1 0.5 1L-0.5 1A0.5 0.5 0 0 1 -1 0.5L-1 -0.5A0.5 0.5 0 0 1 -0.5 -1" transform="matrix(32,0,0,26,272.0602,117.2241)" fill="#3b82f6" stroke="rgb(255,255,255)" stroke-width="0.06933752452815364" stroke-opacity="0.7" filter="url(#zr0-s0)" class="zr0-cls-2"></path>
<path d="M-0.5 -1L0.5 -1A0.5 0.5 0 0 1 1 -0.5L1 0.5A0.5 0.5 0 0 1 0.5 1L-0.5 1A0.5 0.5 0 0 1 -1 0.5L-1 -0.5A0.5 0.5 0 0 1 -0.5 -1" transform="matrix(33,0,0,26,428.3205,117.2241)" fill="#3b82f6" stroke="rgb(255,255,255)" stroke-width="0.06827887419989188" stroke-opacity="0.7" filter="url(#zr0-s1)" class="zr0-cls-2"></path>
<path d="M-0.5 -1L0.5 -1A0.5 0.5 0 0 1 1 -0.5L1 0.5A0.5 0.5 0 0 1 0.5 1L-0.5 1A0.5 0.5 0 0 1 -1 0.5L-1 -0.5A0.5 0.5 0 0 1 -0.5 -1" transform="matrix(33,0,0,26,584.5807,117.2241)" fill="#10b981" stroke="rgb(255,255,255)" stroke-width="0.06827887419989188" stroke-opacity="0.7" filter="url(#zr0-s1)" class="zr0-cls-3"></path>
<path d="M-0.5 -1L0.5 -1A0.5 0.5 0 0 1 1 -0.5L1 0.5A0.5 0.5 0 0 1 0.5 1L-0.5 1A0.5 0.5 0 0 1 -1 0.5L-1 -0.5A0.5 0.5 0 0 1 -0.5 -1" transform="matrix(33,0,0,26,740.841,117.2241)" fill="#10b981" stroke="rgb(255,255,255)" stroke-width="0.06827887419989188" stroke-opacity="0.7" filter="url(#zr0-s1)" class="zr0-cls-3"></path>
<path d="M-0.5 -1L0.5 -1A0.5 0.5 0 0 1 1 -0.5L1 0.5A0.5 0.5 0 0 1 0.5 1L-0.5 1A0.5 0.5 0 0 1 -1 0.5L-1 -0.5A0.5 0.5 0 0 1 -0.5 -1" transform="matrix(35,0,0,26,897.1012,117.2241)" fill="#10b981" stroke="rgb(255,255,255)" stroke-width="0.06629935441317959" stroke-opacity="0.7" filter="url(#zr0-s2)" class="zr0-cls-3"></path>
<path d="M-0.5 -1L0.5 -1A0.5 0.5 0 0 1 1 -0.5L1 0.5A0.5 0.5 0 0 1 0.5 1L-0.5 1A0.5 0.5 0 0 1 -1 0.5L-1 -0.5A0.5 0.5 0 0 1 -0.5 -1" transform="matrix(33,0,0,26,1042.2,234.4193)" fill="#8b5cf6" stroke="rgb(255,255,255)" stroke-width="0.06827887419989188" stroke-opacity="0.7" filter="url(#zr0-s1)" class="zr0-cls-4"></path>
<path d="M-0.5 -1L0.5 -1A0.5 0.5 0 0 1 1 -0.5L1 0.5A0.5 0.5 0 0 1 0.5 1L-0.5 1A0.5 0.5 0 0 1 -1 0.5L-1 -0.5A0.5 0.5 0 0 1 -0.5 -1" transform="matrix(33,0,0,26,897.1012,234.4193)" fill="#8b5cf6" stroke="rgb(255,255,255)" stroke-width="0.06827887419989188" stroke-opacity="0.7" filter="url(#zr0-s1)" class="zr0-cls-4"></path>
<path d="M-0.5 -1L0.5 -1A0.5 0.5 0 0 1 1 -0.5L1 0.5A0.5 0.5 0 0 1 0.5 1L-0.5 1A0.5 0.5 0 0 1 -1 0.5L-1 -0.5A0.5 0.5 0 0 1 -0.5 -1" transform="matrix(29,0,0,26,740.841,234.4193)" fill="#8b5cf6" stroke="rgb(255,255,255)" stroke-width="0.07283570407292297" stroke-opacity="0.7" filter="url(#zr0-s3)" class="zr0-cls-4"></path>
<path d="M-0.5 -1L0.5 -1A0.5 0.5 0 0 1 1 -0.5L1 0.5A0.5 0.5 0 0 1 0.5 1L-0.5 1A0.5 0.5 0 0 1 -1 0.5L-1 -0.5A0.5 0.5 0 0 1 -0.5 -1" transform="matrix(33,0,0,26,584.5807,234.4193)" fill="#f59e0b" stroke="rgb(255,255,255)" stroke-width="0.06827887419989188" stroke-opacity="0.7" filter="url(#zr0-s1)" class="zr0-cls-5"></path>
<path d="M-0.5 -1L0.5 -1A0.5 0.5 0 0 1 1 -0.5L1 0.5A0.5 0.5 0 0 1 0.5 1L-0.5 1A0.5 0.5 0 0 1 -1 0.5L-1 -0.5A0.5 0.5 0 0 1 -0.5 -1" transform="matrix(34,0,0,26,428.3205,234.4193)" fill="#f59e0b" stroke="rgb(255,255,255)" stroke-width="0.06726727939963124" stroke-opacity="0.7" filter="url(#zr0-s4)" class="zr0-cls-5"></path>
<path d="M-0.5 -1L0.5 -1A0.5 0.5 0 0 1 1 -0.5L1 0.5A0.5 0.5 0 0 1 0.5 1L-0.5 1A0.5 0.5 0 0 1 -1 0.5L-1 -0.5A0.5 0.5 0 0 1 -0.5 -1" transform="matrix(34,0,0,26,272.0602,234.4193)" fill="#ec4899" stroke="rgb(255,255,255)" stroke-width="0.06726727939963124" stroke-opacity="0.7" filter="url(#zr0-s4)" class="zr0-cls-6"></path>
<path d="M-0.5 -1L0.5 -1A0.5 0.5 0 0 1 1 -0.5L1 0.5A0.5 0.5 0 0 1 0.5 1L-0.5 1A0.5 0.5 0 0 1 -1 0.5L-1 -0.5A0.5 0.5 0 0 1 -0.5 -1" transform="matrix(40,0,0,26,579,362.7759)" fill="#10b981" stroke="rgb(255,255,255)" stroke-width="0.062017367294604234" stroke-opacity="0.7" filter="url(#zr0-s5)" class="zr0-cls-3"></path>
<path d="M-26.521 -15l53.042 0l0 30l-53.042 0Z" transform="translate(115.8 117.2241)" fill="none" class="zr0-cls-7"></path>
<text dominant-baseline="central" text-anchor="middle" style="font-size:11px;font-family:sans-serif;font-weight:700;" y="-7.5" transform="translate(115.8 117.2241)" fill="#fff">读</text>
<text dominant-baseline="central" text-anchor="middle" style="font-size:11px;font-family:sans-serif;font-weight:700;" y="7.5" transform="translate(115.8 117.2241)" fill="#fff">SKILL.md</text>
<path d="M-22.484 -15l44.968 0l0 30l-44.968 0Z" transform="translate(272.0602 117.2241)" fill="none" class="zr0-cls-7"></path>
<text dominant-baseline="central" text-anchor="middle" style="font-size:11px;font-family:sans-serif;font-weight:700;" y="-7.5" transform="translate(272.0602 117.2241)" fill="#fff">企业分布</text>
<text dominant-baseline="central" text-anchor="middle" style="font-size:11px;font-family:sans-serif;font-weight:700;" y="7.5" transform="translate(272.0602 117.2241)" fill="#fff">探索</text>
<path d="M-22.484 -15l44.968 0l0 30l-44.968 0Z" transform="translate(428.3205 117.2241)" fill="none" class="zr0-cls-7"></path>
<text dominant-baseline="central" text-anchor="middle" style="font-size:11px;font-family:sans-serif;font-weight:700;" y="-7.5" transform="translate(428.3205 117.2241)" fill="#fff">Q1-Q10</text>
<text dominant-baseline="central" text-anchor="middle" style="font-size:11px;font-family:sans-serif;font-weight:700;" y="7.5" transform="translate(428.3205 117.2241)" fill="#fff">配置向导</text>
<path d="M-22.484 -15l44.968 0l0 30l-44.968 0Z" transform="translate(584.5807 117.2241)" fill="none" class="zr0-cls-7"></path>
<text dominant-baseline="central" text-anchor="middle" style="font-size:11px;font-family:sans-serif;font-weight:700;" y="-7.5" transform="translate(584.5807 117.2241)" fill="#fff">扩展验证</text>
<text dominant-baseline="central" text-anchor="middle" style="font-size:11px;font-family:sans-serif;font-weight:700;" y="7.5" transform="translate(584.5807 117.2241)" fill="#fff">公司池</text>
<path d="M-22.484 -15l44.968 0l0 30l-44.968 0Z" transform="translate(740.841 117.2241)" fill="none" class="zr0-cls-7"></path>
<text dominant-baseline="central" text-anchor="middle" style="font-size:11px;font-family:sans-serif;font-weight:700;" y="-7.5" transform="translate(740.841 117.2241)" fill="#fff">官方入口</text>
<text dominant-baseline="central" text-anchor="middle" style="font-size:11px;font-family:sans-serif;font-weight:700;" y="7.5" transform="translate(740.841 117.2241)" fill="#fff">采样</text>
<path d="M-22.484 -15l44.968 0l0 30l-44.968 0Z" transform="translate(897.1012 117.2241)" fill="none" class="zr0-cls-7"></path>
<text dominant-baseline="central" text-anchor="middle" style="font-size:11px;font-family:sans-serif;font-weight:700;" y="-7.5" transform="translate(897.1012 117.2241)" fill="#fff">原始信号</text>
<text dominant-baseline="central" text-anchor="middle" style="font-size:11px;font-family:sans-serif;font-weight:700;" y="7.5" transform="translate(897.1012 117.2241)" fill="#fff">归纳表</text>
<path d="M-20.4325 -15l40.865 0l0 30l-40.865 0Z" transform="translate(1042.2 234.4193)" fill="none" class="zr0-cls-7"></path>
<text dominant-baseline="central" text-anchor="middle" style="font-size:11px;font-family:sans-serif;font-weight:700;" y="-7.5" transform="translate(1042.2 234.4193)" fill="#fff">提炼</text>
<text dominant-baseline="central" text-anchor="middle" style="font-size:11px;font-family:sans-serif;font-weight:700;" y="7.5" transform="translate(1042.2 234.4193)" fill="#fff">6个维度</text>
<path d="M-22.5005 -15l45.001 0l0 30l-45.001 0Z" transform="translate(897.1012 234.4193)" fill="none" class="zr0-cls-7"></path>
<text dominant-baseline="central" text-anchor="middle" style="font-size:11px;font-family:sans-serif;font-weight:700;" y="-7.5" transform="translate(897.1012 234.4193)" fill="#fff">构建</text>
<text dominant-baseline="central" text-anchor="middle" style="font-size:11px;font-family:sans-serif;font-weight:700;" y="7.5" transform="translate(897.1012 234.4193)" fill="#fff">B层+E层</text>
<path d="M-16.797 -15l33.594 0l0 30l-33.594 0Z" transform="translate(740.841 234.4193)" fill="none" class="zr0-cls-7"></path>
<text dominant-baseline="central" text-anchor="middle" style="font-size:11px;font-family:sans-serif;font-weight:700;" y="-7.5" transform="translate(740.841 234.4193)" fill="#fff">MECE</text>
<text dominant-baseline="central" text-anchor="middle" style="font-size:11px;font-family:sans-serif;font-weight:700;" y="7.5" transform="translate(740.841 234.4193)" fill="#fff">校验</text>
<path d="M-27.6595 -15l55.319 0l0 30l-55.319 0Z" transform="translate(584.5807 234.4193)" fill="none" class="zr0-cls-7"></path>
<text dominant-baseline="central" text-anchor="middle" style="font-size:11px;font-family:sans-serif;font-weight:700;" y="-7.5" transform="translate(584.5807 234.4193)" fill="#fff">生成</text>
<text dominant-baseline="central" text-anchor="middle" style="font-size:11px;font-family:sans-serif;font-weight:700;" y="7.5" transform="translate(584.5807 234.4193)" fill="#fff">HTML报告</text>
<path d="M-22.484 -15l44.968 0l0 30l-44.968 0Z" transform="translate(428.3205 234.4193)" fill="none" class="zr0-cls-7"></path>
<text dominant-baseline="central" text-anchor="middle" style="font-size:11px;font-family:sans-serif;font-weight:700;" y="-7.5" transform="translate(428.3205 234.4193)" fill="#fff">图表修正</text>
<text dominant-baseline="central" text-anchor="middle" style="font-size:11px;font-family:sans-serif;font-weight:700;" xml:space="preserve" y="7.5" transform="translate(428.3205 234.4193)" fill="#fff">&amp; 自检</text>
<path d="M-22.484 -15l44.968 0l0 30l-44.968 0Z" transform="translate(272.0602 234.4193)" fill="none" class="zr0-cls-7"></path>
<text dominant-baseline="central" text-anchor="middle" style="font-size:11px;font-family:sans-serif;font-weight:700;" y="-7.5" transform="translate(272.0602 234.4193)" fill="#fff">视觉统一</text>
<text dominant-baseline="central" text-anchor="middle" style="font-size:11px;font-family:sans-serif;font-weight:700;" y="7.5" transform="translate(272.0602 234.4193)" fill="#fff">配色收敛</text>
<path d="M-27.6595 -15l55.319 0l0 30l-55.319 0Z" transform="translate(579 362.7759)" fill="none" class="zr0-cls-7"></path>
<text dominant-baseline="central" text-anchor="middle" style="font-size:11px;font-family:sans-serif;font-weight:700;" xml:space="preserve" y="-7.5" transform="translate(579 362.7759)" fill="#fff">✓ 交付</text>
<text dominant-baseline="central" text-anchor="middle" style="font-size:11px;font-family:sans-serif;font-weight:700;" y="7.5" transform="translate(579 362.7759)" fill="#fff">HTML报告</text>
<defs >
<filter id="zr0-s0" x="-100%" y="-100%" width="300%" height="300%">
<feDropShadow dx="0" dy="0" stdDeviation="0.15625 0.19230769230769232" flood-color="rgb(15,23,42)" flood-opacity="0.1"></feDropShadow>
</filter>
<filter id="zr0-s1" x="-100%" y="-100%" width="300%" height="300%">
<feDropShadow dx="0" dy="0" stdDeviation="0.15151515151515152 0.19230769230769232" flood-color="rgb(15,23,42)" flood-opacity="0.1"></feDropShadow>
</filter>
<filter id="zr0-s2" x="-100%" y="-100%" width="300%" height="300%">
<feDropShadow dx="0" dy="0" stdDeviation="0.14285714285714285 0.19230769230769232" flood-color="rgb(15,23,42)" flood-opacity="0.1"></feDropShadow>
</filter>
<filter id="zr0-s3" x="-100%" y="-100%" width="300%" height="300%">
<feDropShadow dx="0" dy="0" stdDeviation="0.1724137931034483 0.19230769230769232" flood-color="rgb(15,23,42)" flood-opacity="0.1"></feDropShadow>
</filter>
<filter id="zr0-s4" x="-100%" y="-100%" width="300%" height="300%">
<feDropShadow dx="0" dy="0" stdDeviation="0.14705882352941177 0.19230769230769232" flood-color="rgb(15,23,42)" flood-opacity="0.1"></feDropShadow>
</filter>
<filter id="zr0-s5" x="-100%" y="-100%" width="300%" height="300%">
<feDropShadow dx="0" dy="0" stdDeviation="0.125 0.19230769230769232" flood-color="rgb(15,23,42)" flood-opacity="0.1"></feDropShadow>
</filter>
</defs>
<style ><![CDATA[
.zr0-cls-0:hover {
cursor:pointer;
stroke:#3b82f6;
stroke-width:2.687823834196891;
}
.zr0-cls-1:hover {
cursor:pointer;
fill:#3b82f6;
}
.zr0-cls-2:hover {
cursor:pointer;
fill:rgba(64,143,255,1);
}
.zr0-cls-3:hover {
cursor:pointer;
fill:rgba(17,203,141,1);
}
.zr0-cls-4:hover {
cursor:pointer;
fill:rgba(152,101,255,1);
}
.zr0-cls-5:hover {
cursor:pointer;
fill:rgba(255,173,12,1);
}
.zr0-cls-6:hover {
cursor:pointer;
fill:rgba(255,79,168,1);
}
.zr0-cls-7:hover {
cursor:pointer;
}

]]>

</style>
</svg>